<svg xmlns="http://www.w3.org/2000/svg" viewBox="0 0 512 512" role="img" aria-label="Space Repair icon">
  <rect width="512" height="512" rx="96" fill="#06110f"/>
  <circle cx="256" cy="256" r="186" fill="#f6f3df" stroke="#0b0b0b" stroke-width="18"/>
  <path d="M155 275c0-65 48-118 108-118 22 0 42 7 59 20l-31 31c-9-5-19-8-30-8-36 0-65 33-65 75 0 15 4 29 11 41l-35 35c-11-21-17-46-17-76Z" fill="#0b0b0b"/>
  <path d="M349 161l45 45-47 47-45-45 47-47Z" fill="#0b0b0b"/>
  <path d="M176 386l-50-50 171-171 50 50-171 171Z" fill="#0b0b0b"/>
  <path d="M305 320c10-11 17-27 17-45h43c0 31-11 60-29 82l-31-37Z" fill="#0b0b0b"/>
  <path d="M238 87h36v64h-36zM238 361h36v64h-36zM361 238h64v36h-64zM87 238h64v36H87z" fill="#0b0b0b"/>
</svg>
